<svg width="41" height="41" viewBox="0 0 41 41" fill="none" xmlns="http://www.w3.org/2000/svg">
<g id="fluent:delete-20-regular">
<path id="Vector" d="M23.9252 8.09723C23.9252 7.30158 23.6091 6.53852 23.0465 5.97591C22.4839 5.4133 21.7208 5.09723 20.9252 5.09723C20.1295 5.09723 19.3665 5.4133 18.8039 5.97591C18.2412 6.53852 17.9252 7.30158 17.9252 8.09723H15.9252C15.9252 6.77115 16.452 5.49938 17.3896 4.5617C18.3273 3.62401 19.5991 3.09723 20.9252 3.09723C22.2513 3.09723 23.523 3.62401 24.4607 4.5617C25.3984 5.49938 25.9252 6.77115 25.9252 8.09723H34.9252C35.1904 8.09723 35.4447 8.20259 35.6323 8.39012C35.8198 8.57766 35.9252 8.83201 35.9252 9.09723C35.9252 9.36245 35.8198 9.6168 35.6323 9.80434C35.4447 9.99187 35.1904 10.0972 34.9252 10.0972H33.8172L31.2252 32.5572C31.1123 33.532 30.6451 34.4313 29.9123 35.084C29.1796 35.7368 28.2325 36.0974 27.2512 36.0972H14.5992C13.6179 36.0974 12.6708 35.7368 11.938 35.084C11.2053 34.4313 10.738 33.532 10.6252 32.5572L8.03117 10.0972H6.92517C6.69112 10.0973 6.46446 10.0153 6.28465 9.86545C6.10485 9.71561 5.9833 9.50746 5.94117 9.27723L5.92517 9.09723C5.92517 8.83201 6.03053 8.57766 6.21806 8.39012C6.4056 8.20259 6.65995 8.09723 6.92517 8.09723H23.9252ZM31.8012 10.0972H10.0472L12.6112 32.3272C12.6676 32.8148 12.9014 33.2646 13.268 33.591C13.6345 33.9174 14.1083 34.0975 14.5992 34.0972H27.2512C27.7417 34.0971 28.215 33.9166 28.5811 33.5903C28.9473 33.264 29.1808 32.8145 29.2372 32.3272L31.8012 10.0972ZM17.9252 15.0972C18.4152 15.0972 18.8252 15.4072 18.9092 15.8152L18.9252 15.9732V28.2232C18.9252 28.7052 18.4772 29.0972 17.9252 29.0972C17.4352 29.0972 17.0252 28.7872 16.9412 28.3792L16.9252 28.2212V15.9752C16.9252 15.4912 17.3732 15.0992 17.9252 15.0992V15.0972ZM23.9252 15.0972C24.4152 15.0972 24.8252 15.4072 24.9092 15.8152L24.9252 15.9732V28.2232C24.9252 28.7052 24.4772 29.0972 23.9252 29.0972C23.4352 29.0972 23.0252 28.7872 22.9412 28.3792L22.9252 28.2212V15.9752C22.9252 15.4912 23.3732 15.0992 23.9252 15.0992V15.0972Z" fill="#F25F4C"/>
</g>
</svg>
