<svg width="41" height="41" viewBox="0 0 41 41" fill="none" xmlns="http://www.w3.org/2000/svg">
<g id="clarity:edit-line" clip-path="url(#clip0_78_2256)">
<path id="Vector" d="M38.608 9.34167L32.0858 2.78612C31.6548 2.3573 31.0715 2.11658 30.4636 2.11658C29.8556 2.11658 29.2723 2.3573 28.8413 2.78612L5.71912 25.875L3.60801 34.9861C3.53518 35.3192 3.53768 35.6643 3.61531 35.9963C3.69295 36.3283 3.84377 36.6387 4.05674 36.9049C4.26972 37.1711 4.53948 37.3864 4.84631 37.535C5.15315 37.6836 5.4893 37.7618 5.83023 37.7639C5.98908 37.7799 6.14915 37.7799 6.30801 37.7639L15.5191 35.6528L38.608 12.5861C39.0368 12.1551 39.2776 11.5719 39.2776 10.9639C39.2776 10.3559 39.0368 9.77267 38.608 9.34167ZM14.408 33.6528L5.77467 35.4639L7.74134 26.9972L25.0413 9.7639L31.708 16.4306L14.408 33.6528ZM33.1969 14.8195L26.5302 8.15279L30.3969 4.30834L36.9525 10.975L33.1969 14.8195Z" fill="black"/>
</g>
<defs>
<clipPath id="clip0_78_2256">
<rect width="40" height="40" fill="white" transform="translate(0.974854 0.097229)"/>
</clipPath>
</defs>
</svg>
